<?xml version="1.0" encoding="utf-8"?>
<svg xmlns="http://www.w3.org/2000/svg" style="margin: auto; background: none; display: block; shape-rendering: auto;" width="280" height="250" preserveAspectRatio="xMidYMid">
<style type="text/css">
  text {
    text-anchor: middle; font-size: 117px; opacity: 0;
  }
</style>
<g style="transform-origin: 140px 125px; transform: scale(1.4625);">
<g transform="translate(140,125)">
  <g transform="translate(0,0)"><g class="path" style="opacity: 1; transform-origin: -56.205px -9.81497px; animation: 1s linear -0.833333s infinite normal forwards running fade-c94e9d37-c69d-4449-a2de-2e0d68da73fe;"><path d="M37.93 0L32.89 0L32.89-25.59L11.45-25.59L11.45 0L6.41 0L6.41-56.02L11.45-56.02L11.45-30.39L32.89-30.39L32.89-56.02L37.93-56.02L37.93 0" fill="#3c0f0f" stroke="none" stroke-width="none" transform="translate(-78.37503051757812,18.195034840901688)" style="fill: rgb(60, 15, 15);"></path></g><g class="path" style="opacity: 1; transform-origin: -16.655px -1.80497px; animation: 1s linear -0.333333s infinite normal forwards running fade-c94e9d37-c69d-4449-a2de-2e0d68da73fe;"><path d="M75.08 0L73.48 0L70.82-3.98L70.82-3.98Q69.18-1.84 66.72-0.53L66.72-0.53L66.72-0.53Q64.26 0.78 61.33 0.78L61.33 0.78L60.12 0.78L60.12 0.78Q57.70 0.78 55.55-0.14L55.55-0.14L55.55-0.14Q53.40-1.05 51.80-2.66L51.80-2.66L51.80-2.66Q50.20-4.26 49.28-6.41L49.28-6.41L49.28-6.41Q48.36-8.55 48.36-10.98L48.36-10.98L48.36-11.37L48.36-11.37Q48.36-13.79 49.28-15.94L49.28-15.94L49.28-15.94Q50.20-18.09 51.80-19.69L51.80-19.69L51.80-19.69Q53.40-21.29 55.55-22.21L55.55-22.21L55.55-22.21Q57.70-23.13 60.12-23.13L60.12-23.13L70.27-23.13L70.27-29.30L70.27-29.30Q70.27-30.74 69.73-32.01L69.73-32.01L69.73-32.01Q69.18-33.28 68.24-34.22L68.24-34.22L68.24-34.22Q67.30-35.16 66.04-35.70L66.04-35.70L66.04-35.70Q64.77-36.25 63.32-36.25L63.32-36.25L60.51-36.25L60.51-36.25Q59.06-36.25 57.79-35.70L57.79-35.70L57.79-35.70Q56.52-35.16 55.59-34.22L55.59-34.22L55.59-34.22Q54.65-33.28 54.10-32.01L54.10-32.01L54.10-32.01Q53.55-30.74 53.55-29.30L53.55-29.30L53.55-27.85L48.75-28.63L48.75-29.02L48.75-29.02Q48.75-31.45 49.67-33.59L49.67-33.59L49.67-33.59Q50.59-35.74 52.19-37.34L52.19-37.34L52.19-37.34Q53.79-38.95 55.94-39.86L55.94-39.86L55.94-39.86Q58.09-40.78 60.51-40.78L60.51-40.78L63.32-40.78L63.32-40.78Q65.74-40.78 67.89-39.86L67.89-39.86L67.89-39.86Q70.04-38.95 71.64-37.34L71.64-37.34L71.64-37.34Q73.24-35.74 74.16-33.59L74.16-33.59L74.16-33.59Q75.08-31.45 75.08-29.02L75.08-29.02L75.08 0zM70.27-10.70L70.27-19.38L60.12-19.38L60.12-19.38Q58.67-19.38 57.40-18.83L57.40-18.83L57.40-18.83Q56.13-18.28 55.20-17.32L55.20-17.32L55.20-17.32Q54.26-16.37 53.71-15.10L53.71-15.10L53.71-15.10Q53.16-13.83 53.16-12.38L53.16-12.38L53.16-10.70L53.16-10.70Q53.16-9.26 53.71-7.99L53.71-7.99L53.71-7.99Q54.26-6.72 55.20-5.78L55.20-5.78L55.20-5.78Q56.13-4.84 57.40-4.30L57.40-4.30L57.40-4.30Q58.67-3.75 60.12-3.75L60.12-3.75L63.32-3.75L63.32-3.75Q64.77-3.75 66.04-4.30L66.04-4.30L66.04-4.30Q67.30-4.84 68.24-5.78L68.24-5.78L68.24-5.78Q69.18-6.72 69.73-7.99L69.73-7.99L69.73-7.99Q70.27-9.26 70.27-10.70L70.27-10.70" fill="#3c0f0f" stroke="none" stroke-width="none" transform="translate(-78.37503051757812,18.195034840901688)" style="fill: rgb(237, 177, 149);"></path></g><g class="path" style="opacity: 1; transform-origin: 23.675px -9.81497px; animation: 1s linear -0.666667s infinite normal forwards running fade-c94e9d37-c69d-4449-a2de-2e0d68da73fe;"><path d="M117.81-13.75L117.81-13.75L117.81-13.75Q117.81-10.90 116.74-8.40L116.74-8.40L116.74-8.40Q115.66-5.90 113.79-4.02L113.79-4.02L113.79-4.02Q111.91-2.15 109.39-1.07L109.39-1.07L109.39-1.07Q106.88 0 104.02 0L104.02 0L86.29 0L86.29-56.02L104.02-56.02L104.02-56.02Q106.88-56.02 109.39-54.94L109.39-54.94L109.39-54.94Q111.91-53.87 113.79-51.99L113.79-51.99L113.79-51.99Q115.66-50.12 116.74-47.60L116.74-47.60L116.74-47.60Q117.81-45.08 117.81-42.23L117.81-42.23L117.81-13.75zM112.77-13.75L112.77-42.23L112.77-42.23Q112.77-44.10 112.07-45.72L112.07-45.72L112.07-45.72Q111.37-47.34 110.14-48.57L110.14-48.57L110.14-48.57Q108.91-49.80 107.29-50.51L107.29-50.51L107.29-50.51Q105.66-51.21 103.79-51.21L103.79-51.21L91.33-51.21L91.33-4.80L103.79-4.80L103.79-4.80Q105.66-4.80 107.29-5.51L107.29-5.51L107.29-5.51Q108.91-6.21 110.14-7.42L110.14-7.42L110.14-7.42Q111.37-8.63 112.07-10.25L112.07-10.25L112.07-10.25Q112.77-11.88 112.77-13.75L112.77-13.75" fill="#3c0f0f" stroke="none" stroke-width="none" transform="translate(-78.37503051757812,18.195034840901688)" style="fill: rgb(249, 26, 16);"></path></g><g class="path" style="opacity: 1; transform-origin: 52.23px -34.62px; animation: 1s linear -0.5s infinite normal forwards running fade-c94e9d37-c69d-4449-a2de-2e0d68da73fe;"><path d="M133.40-49.61L127.81-49.61L127.81-56.02L133.40-56.02L133.40-49.61" fill="#3c0f0f" stroke="none" stroke-width="none" transform="translate(-78.37503051757812,18.195034840901688)" style="fill: rgb(228, 107, 67);"></path></g><g class="path" style="opacity: 1; transform-origin: 52.23px -1.80497px; animation: 1s linear -0.166667s infinite normal forwards running fade-c94e9d37-c69d-4449-a2de-2e0d68da73fe;"><path d="M133.01 0L128.20 0L128.20-40L133.01-40L133.01 0" fill="#3c0f0f" stroke="none" stroke-width="none" transform="translate(-78.37503051757812,18.195034840901688)" style="fill: rgb(42, 167, 201);"></path></g><g class="path" style="opacity: 1; transform-origin: 73.715px -6.99997px; animation: 1s linear 0s infinite normal forwards running fade-c94e9d37-c69d-4449-a2de-2e0d68da73fe;"><path d="M163.16 0L158.79 0L158.79 0Q156.60 0 154.67-0.82L154.67-0.82L154.67-0.82Q152.73-1.64 151.31-3.09L151.31-3.09L151.31-3.09Q149.88-4.53 149.04-6.45L149.04-6.45L149.04-6.45Q148.20-8.36 148.20-10.55L148.20-10.55L148.20-35.43L141.02-35.43L141.02-40L148.20-40L148.20-49.61L153.01-50.39L153.01-40L163.16-40L163.16-35.43L153.01-35.43L153.01-10.31L153.01-10.31Q153.01-9.10 153.46-8.07L153.46-8.07L153.46-8.07Q153.91-7.03 154.69-6.25L154.69-6.25L154.69-6.25Q155.47-5.47 156.52-5.02L156.52-5.02L156.52-5.02Q157.58-4.57 158.79-4.57L158.79-4.57L163.16-4.57L163.16 0" fill="#3c0f0f" stroke="none" stroke-width="none" transform="translate(-78.37503051757812,18.195034840901688)" style="fill: rgb(6, 98, 141);"></path></g></g>
</g>
</g>
<style id="fade-c94e9d37-c69d-4449-a2de-2e0d68da73fe" data-anikit="">@keyframes fade-c94e9d37-c69d-4449-a2de-2e0d68da73fe
{
  0% {
    animation-timing-function: cubic-bezier(0.2057,0.573,0.3723,0.9184);
    opacity: 1;
  }
  100% {
    opacity: 0;
  }
}</style></svg>