<?xml version="1.0" encoding="utf-8"?>
<svg xmlns="http://www.w3.org/2000/svg" style="margin: auto; background: rgb(241, 242, 243); display: block; shape-rendering: crispedges;" width="286" height="250" preserveAspectRatio="xMidYMid">
<style type="text/css">
  text {
    text-anchor: middle; font-size: 131px; opacity: 0;
  }
</style>
<g style="transform-origin: 143px 125px; transform: scale(1.23585);">
<g transform="translate(143,125)">
  <g transform="translate(-8,0)"><g class="path" style="opacity: 1; transform-origin: -74.475px -13.0034px; animation: 1.92308s linear -1.60256s infinite normal forwards running fade-95e9ebab-a1dd-427b-8b1f-2b205641908e;"><path d="M50.26 0L43.58 0L43.58-33.90L15.17-33.90L15.17 0L8.49 0L8.49-74.22L15.17-74.22L15.17-40.27L43.58-40.27L43.58-74.22L50.26-74.22L50.26 0" fill="#3c0f0f" stroke="none" stroke-width="none" transform="translate(-103.85000610351562,24.106566975911456)" style="fill: rgb(60, 15, 15);"></path></g><g class="path" style="opacity: 1; transform-origin: -22.07px -2.39343px; animation: 1.92308s linear -0.641026s infinite normal forwards running fade-95e9ebab-a1dd-427b-8b1f-2b205641908e;"><path d="M99.48 0L97.36 0L93.84-5.28L93.84-5.28Q91.66-2.43 88.40-0.70L88.40-0.70L88.40-0.70Q85.14 1.04 81.26 1.04L81.26 1.04L79.66 1.04L79.66 1.04Q76.45 1.04 73.60-0.18L73.60-0.18L73.60-0.18Q70.75-1.40 68.63-3.52L68.63-3.52L68.63-3.52Q66.51-5.64 65.29-8.49L65.29-8.49L65.29-8.49Q64.08-11.33 64.08-14.54L64.08-14.54L64.08-15.06L64.08-15.06Q64.08-18.27 65.29-21.12L65.29-21.12L65.29-21.12Q66.51-23.96 68.63-26.09L68.63-26.09L68.63-26.09Q70.75-28.21 73.60-29.42L73.60-29.42L73.60-29.42Q76.45-30.64 79.66-30.64L79.66-30.64L93.11-30.64L93.11-38.82L93.11-38.82Q93.11-40.73 92.39-42.42L92.39-42.42L92.39-42.42Q91.66-44.10 90.42-45.34L90.42-45.34L90.42-45.34Q89.18-46.58 87.50-47.31L87.50-47.31L87.50-47.31Q85.81-48.03 83.90-48.03L83.90-48.03L80.17-48.03L80.17-48.03Q78.26-48.03 76.58-47.31L76.58-47.31L76.58-47.31Q74.89-46.58 73.65-45.34L73.65-45.34L73.65-45.34Q72.41-44.10 71.68-42.42L71.68-42.42L71.68-42.42Q70.96-40.73 70.96-38.82L70.96-38.82L70.96-36.90L64.59-37.94L64.59-38.46L64.59-38.46Q64.59-41.67 65.81-44.51L65.81-44.51L65.81-44.51Q67.03-47.36 69.15-49.48L69.15-49.48L69.15-49.48Q71.27-51.60 74.12-52.82L74.12-52.82L74.12-52.82Q76.96-54.04 80.17-54.04L80.17-54.04L83.90-54.04L83.90-54.04Q87.11-54.04 89.96-52.82L89.96-52.82L89.96-52.82Q92.80-51.60 94.92-49.48L94.92-49.48L94.92-49.48Q97.05-47.36 98.26-44.51L98.26-44.51L98.26-44.51Q99.48-41.67 99.48-38.46L99.48-38.46L99.48 0zM93.11-14.18L93.11-25.67L79.66-25.67L79.66-25.67Q77.74-25.67 76.06-24.95L76.06-24.95L76.06-24.95Q74.38-24.22 73.13-22.95L73.13-22.95L73.13-22.95Q71.89-21.69 71.17-20.00L71.17-20.00L71.17-20.00Q70.44-18.32 70.44-16.41L70.44-16.41L70.44-14.18L70.44-14.18Q70.44-12.27 71.17-10.58L71.17-10.58L71.17-10.58Q71.89-8.90 73.13-7.66L73.13-7.66L73.13-7.66Q74.38-6.42 76.06-5.69L76.06-5.69L76.06-5.69Q77.74-4.97 79.66-4.97L79.66-4.97L83.90-4.97L83.90-4.97Q85.81-4.97 87.50-5.69L87.50-5.69L87.50-5.69Q89.18-6.42 90.42-7.66L90.42-7.66L90.42-7.66Q91.66-8.90 92.39-10.58L92.39-10.58L92.39-10.58Q93.11-12.27 93.11-14.18L93.11-14.18" fill="#3c0f0f" stroke="none" stroke-width="none" transform="translate(-103.85000610351562,24.106566975911456)" style="fill: rgb(237, 177, 149);"></path></g><g class="path" style="opacity: 1; transform-origin: 31.365px -13.0034px; animation: 1.92308s linear -1.28205s infinite normal forwards running fade-95e9ebab-a1dd-427b-8b1f-2b205641908e;"><path d="M156.10-18.22L156.10-18.22L156.10-18.22Q156.10-14.44 154.68-11.13L154.68-11.13L154.68-11.13Q153.25-7.82 150.77-5.33L150.77-5.33L150.77-5.33Q148.29-2.85 144.95-1.42L144.95-1.42L144.95-1.42Q141.61 0 137.83 0L137.83 0L114.33 0L114.33-74.22L137.83-74.22L137.83-74.22Q141.61-74.22 144.95-72.80L144.95-72.80L144.95-72.80Q148.29-71.37 150.77-68.89L150.77-68.89L150.77-68.89Q153.25-66.41 154.68-63.07L154.68-63.07L154.68-63.07Q156.10-59.73 156.10-55.95L156.10-55.95L156.10-18.22zM149.42-18.22L149.42-55.95L149.42-55.95Q149.42-58.43 148.49-60.58L148.49-60.58L148.49-60.58Q147.56-62.73 145.93-64.36L145.93-64.36L145.93-64.36Q144.30-65.99 142.15-66.92L142.15-66.92L142.15-66.92Q140.00-67.85 137.52-67.85L137.52-67.85L121.01-67.85L121.01-6.37L137.52-6.37L137.52-6.37Q140.00-6.37 142.15-7.30L142.15-7.30L142.15-7.30Q144.30-8.23 145.93-9.83L145.93-9.83L145.93-9.83Q147.56-11.44 148.49-13.59L148.49-13.59L148.49-13.59Q149.42-15.73 149.42-18.22L149.42-18.22" fill="#3c0f0f" stroke="none" stroke-width="none" transform="translate(-103.85000610351562,24.106566975911456)" style="fill: rgb(249, 26, 16);"></path></g><g class="path" style="opacity: 1; transform-origin: 69.2px -45.8684px; animation: 1.92308s linear -0.961538s infinite normal forwards running fade-95e9ebab-a1dd-427b-8b1f-2b205641908e;"><path d="M176.75-65.73L169.35-65.73L169.35-74.22L176.75-74.22L176.75-65.73" fill="#3c0f0f" stroke="none" stroke-width="none" transform="translate(-103.85000610351562,24.106566975911456)" style="fill: rgb(228, 107, 67);"></path></g><g class="path" style="opacity: 1; transform-origin: 69.205px -2.39343px; animation: 1.92308s linear -0.320513s infinite normal forwards running fade-95e9ebab-a1dd-427b-8b1f-2b205641908e;"><path d="M176.24 0L169.87 0L169.87-53L176.24-53L176.24 0" fill="#3c0f0f" stroke="none" stroke-width="none" transform="translate(-103.85000610351562,24.106566975911456)" style="fill: rgb(42, 167, 201);"></path></g><g class="path" style="opacity: 1; transform-origin: 97.67px -9.27843px; animation: 1.92308s linear 0s infinite normal forwards running fade-95e9ebab-a1dd-427b-8b1f-2b205641908e;"><path d="M216.19 0L210.40 0L210.40 0Q207.50 0 204.94-1.09L204.94-1.09L204.94-1.09Q202.37-2.17 200.48-4.09L200.48-4.09L200.48-4.09Q198.59-6.00 197.48-8.54L197.48-8.54L197.48-8.54Q196.37-11.08 196.37-13.97L196.37-13.97L196.37-46.94L186.85-46.94L186.85-53L196.37-53L196.37-65.73L202.74-66.77L202.74-53L216.19-53L216.19-46.94L202.74-46.94L202.74-13.66L202.74-13.66Q202.74-12.06 203.33-10.69L203.33-10.69L203.33-10.69Q203.93-9.32 204.96-8.28L204.96-8.28L204.96-8.28Q206.00-7.25 207.39-6.65L207.39-6.65L207.39-6.65Q208.79-6.06 210.40-6.06L210.40-6.06L216.19-6.06L216.19 0" fill="#3c0f0f" stroke="none" stroke-width="none" transform="translate(-103.85000610351562,24.106566975911456)" style="fill: rgb(6, 98, 141);"></path></g></g>
</g>
</g>
<style id="fade-95e9ebab-a1dd-427b-8b1f-2b205641908e" data-anikit="">@keyframes fade-95e9ebab-a1dd-427b-8b1f-2b205641908e
{
  0% {
    animation-timing-function: cubic-bezier(0.2057,0.573,0.3723,0.9184);
    opacity: 1;
  }
  100% {
    opacity: 0;
  }
}</style></svg>